# xmcd CD database file
# Copyright (C) 1993-1996 Ti Kan
#
# Track frame offsets:
#  150
#  13339
#  31070
#  46739
#  64609
#  77715
#  91824
#  104540
#  118816
#  133343
#  147452
#  163929
#  178511
#  190084
#  204666
#  221478
#  237259
#  255547
#  272080
#  283012
#  293805
#  305852
#  318575
#  330967
#
# Disc length: 4595 seconds
#
# Revision: 1
# Processed by: cddbd v1.5.1PL0 Copyright (c) Steve Scherf et al.
# Submitted via: Advanced CD Ripper Pro 2.0
#
DISCID=6b11f118
DTITLE=dgghdf - sfgfdgdf
DYEAR=2003
DGENRE=other
TTITLE0=Track01
TTITLE1=Track02
TTITLE2=Track03
TTITLE3=Track04
TTITLE4=Track05
TTITLE5=Track06
TTITLE6=Track07
TTITLE7=Track08
TTITLE8=Track09
TTITLE9=Track10
TTITLE10=Track11
TTITLE11=Track12
TTITLE12=Track13
TTITLE13=Track14
TTITLE14=Track15
TTITLE15=Track16
TTITLE16=Track17
TTITLE17=Track18
TTITLE18=Track19
TTITLE19=Track20
TTITLE20=Track21
TTITLE21=Track22
TTITLE22=Track23
TTITLE23=Track24
EXTD=
EXTT0=
EXTT1=
EXTT2=
EXTT3=
EXTT4=
EXTT5=
EXTT6=
EXTT7=
EXTT8=
EXTT9=
EXTT10=
EXTT11=
EXTT12=
EXTT13=
EXTT14=
EXTT15=
EXTT16=
EXTT17=
EXTT18=
EXTT19=
EXTT20=
EXTT21=
EXTT22=
EXTT23=
PLAYORDER=
